# xmcd
#
# Track frame offsets: 
#        150
#        19313
#        35551
#        63818
#        83919
#        103905
#        129522
#        151368
#        165049
#        180626
#        197908
#        219037
#        246150
#        271050
#        289105
#        319729
#
# Disc length: 4640 seconds
#
# Revision: 2
# Processed by: cddbd v1.5.2PL0 Copyright (c) Steve Scherf et al.
# Submitted via: ExactAudioCopyFreeDBPlugin 1.0
#
DISCID=d5121e10
DTITLE=Billie Holiday - The Complete 1952-57 Small Groups Studio Sessi
DTITLE=ons - CD4
DYEAR=2014
DGENRE=Blues
TTITLE0=Do Nothin' Till You Hear From Me (No. 2)
TTITLE1=Cheek To Cheek
TTITLE2=Ill Wind
TTITLE3=Speak Low
TTITLE4=We'll Be Together Again
TTITLE5=All Or Nothing At All
TTITLE6=Sophisticated Lady
TTITLE7=April In Paris
TTITLE8=I Wished On The Moon (No. 2)
TTITLE9=Moonlight In Vermont
TTITLE10=A Foggy Day
TTITLE11=I Didn't Know What Time It Was
TTITLE12=Just One Of Those Things
TTITLE13=Comes Love
TTITLE14=Day In, Day Out
TTITLE15=Darn That Dream
EXTD=
EXTT0=
EXTT1=
EXTT2=
EXTT3=
EXTT4=
EXTT5=
EXTT6=
EXTT7=
EXTT8=
EXTT9=
EXTT10=
EXTT11=
EXTT12=
EXTT13=
EXTT14=
EXTT15=
PLAYORDER=
